<?xml version="1.0" standalone="no"?>
<!DOCTYPE svg PUBLIC "-//W3C//DTD SVG 20010904//EN"
 "http://www.w3.org/TR/2001/REC-SVG-20010904/DTD/svg10.dtd">
<svg version="1.0" xmlns="http://www.w3.org/2000/svg"
 width="150.000000pt" height="150.000000pt" viewBox="0 0 150.000000 150.000000"
 preserveAspectRatio="xMidYMid meet">
<metadata>
Created by potrace 1.14, written by Peter Selinger 2001-2017
</metadata>
<g transform="translate(0.000000,150.000000) scale(0.100000,-0.100000)"
fill="#000000" stroke="none">
<path d="M1148 1337 c-358 -348 -537 -527 -546 -544 -14 -29 -7 -153 9 -164 8
-5 51 -9 96 -9 l82 0 226 223 c125 122 285 279 356 348 71 70 129 133 129 141
0 18 -153 168 -171 168 -8 0 -89 -73 -181 -163z"/>
<path d="M661 1443 c-7 -3 -109 -100 -226 -215 -117 -115 -264 -259 -325 -319
-106 -103 -112 -111 -102 -134 8 -18 20 -25 39 -26 30 -1 90 -5 192 -13 l65
-6 145 144 c80 79 203 200 274 268 70 69 127 131 127 138 0 13 -156 171 -168
169 -4 0 -13 -3 -21 -6z"/>
<path d="M1001 563 l-271 -266 5 -66 c14 -180 18 -207 30 -220 10 -10 20 -12
34 -5 32 15 661 638 661 654 0 21 -150 170 -171 170 -9 0 -139 -120 -288 -267z"/>
</g>
</svg>
